<?xml version="1.0" standalone="no"?>
<!DOCTYPE svg PUBLIC "-//W3C//DTD SVG 20010904//EN"
 "http://www.w3.org/TR/2001/REC-SVG-20010904/DTD/svg10.dtd">
<svg version="1.0" xmlns="http://www.w3.org/2000/svg"
 width="943.000000pt" height="943.000000pt" viewBox="0 0 943.000000 943.000000"
 preserveAspectRatio="xMidYMid meet">
<metadata>
Created by potrace 1.11, written by Peter Selinger 2001-2013
</metadata>
<g transform="translate(0.000000,943.000000) scale(0.100000,-0.100000)"
fill="#000000" stroke="none">
<path d="M4480 9143 c-1189 -69 -2286 -564 -3095 -1394 -686 -704 -1096 -1567
-1212 -2547 -21 -183 -24 -688 -5 -862 105 -937 461 -1742 1083 -2446 368
-416 848 -783 1363 -1041 1114 -559 2423 -655 3611 -266 1037 340 1903 1013
2468 1918 170 272 345 653 446 969 260 817 260 1735 0 2552 -101 317 -276 697
-447 971 -606 971 -1574 1683 -2702 1988 -471 127 -1034 186 -1510 158z m-788
-1014 c175 -36 329 -171 383 -337 17 -50 19 -52 54 -52 57 0 167 -27 229 -55
l56 -26 61 62 c83 83 160 132 263 166 76 24 102 28 207 28 130 0 210 -19 305
-72 101 -57 199 -152 248 -240 7 -12 21 -10 84 11 98 33 234 36 328 7 48 -15
68 -17 89 -9 14 6 62 10 106 11 214 0 375 -156 375 -364 l0 -56 49 -7 c115
-15 239 -111 295 -226 27 -58 31 -75 31 -155 0 -82 -3 -97 -33 -157 -42 -85
-129 -168 -209 -199 -36 -13 -90 -24 -141 -27 l-83 -5 3 -116 3 -116 440 -6
c491 -6 492 -6 642 -80 148 -72 257 -196 311 -354 l27 -80 0 -805 c0 -903 3
-858 -75 -1026 -54 -116 -110 -194 -224 -313 -195 -200 -448 -368 -873 -578
l-252 -124 -3 -272 c-3 -263 -4 -273 -26 -316 -36 -66 -104 -134 -169 -167
l-58 -29 -1650 0 -1650 0 -56 26 c-76 36 -129 86 -170 161 l-34 63 -5 2161 -5
2160 -37 33 c-90 79 -175 224 -204 349 -21 87 -21 229 0 317 47 199 196 379
391 471 96 46 172 64 292 71 l101 6 41 58 c118 168 336 251 543 208z"/>
<path d="M5324 6829 c-60 -41 -166 -90 -226 -104 -82 -19 -238 -19 -313 0 -33
9 -89 29 -124 45 l-63 30 -64 -59 c-110 -104 -279 -171 -429 -171 -135 0 -311
65 -405 147 l-43 39 -86 -86 c-229 -228 -545 -281 -864 -145 -16 7 -17 -89
-15 -2021 l3 -2029 22 -45 c33 -66 98 -128 173 -164 l65 -31 1525 0 1525 0 57
23 c75 31 150 101 185 177 l28 60 0 1987 1 1987 -28 12 c-71 29 -188 184 -188
248 0 26 0 26 -60 -4 l-50 -25 34 -31 c55 -48 96 -140 96 -213 0 -79 -13 -124
-54 -185 l-34 -50 39 -15 c54 -22 123 -88 150 -144 53 -111 16 -257 -85 -333
-194 -147 -480 -19 -480 214 1 63 27 142 61 179 13 14 13 18 2 18 -32 0 -122
52 -163 95 -113 115 -114 300 -2 419 l42 46 -54 31 c-30 17 -76 50 -101 74
l-47 44 -30 -20z"/>
<path d="M6397 5624 c-10 -10 -9 -2164 1 -2164 4 0 98 45 207 99 339 168 515
303 587 448 l33 68 3 761 c2 703 1 762 -14 775 -14 11 -92 15 -414 17 -218 1
-399 0 -403 -4z"/>
</g>
</svg>
